<?xml version="1.0" standalone="no"?>
<!DOCTYPE svg PUBLIC "-//W3C//DTD SVG 20010904//EN"
 "http://www.w3.org/TR/2001/REC-SVG-20010904/DTD/svg10.dtd">
<svg version="1.0" xmlns="http://www.w3.org/2000/svg"
 width="656.000000pt" height="656.000000pt" viewBox="0 0 656.000000 656.000000"
 preserveAspectRatio="xMidYMid meet">
<metadata>
Created by potrace 1.11, written by Peter Selinger 2001-2013
</metadata>
<g transform="translate(0.000000,656.000000) scale(0.100000,-0.100000)"
fill="#000000" stroke="none">
<path d="M2030 6186 c-232 -81 -403 -199 -530 -365 -170 -225 -228 -344 -429
-896 -121 -333 -168 -448 -202 -496 -17 -24 -26 -27 -99 -31 -92 -5 -124 -22
-153 -80 -17 -34 -17 -64 -8 -497 l9 -461 46 -62 c25 -34 45 -63 43 -64 -1 -1
-20 2 -42 8 -127 34 -210 -63 -230 -269 l-7 -70 -82 -6 c-155 -12 -270 -58
-302 -119 -23 -45 -19 -110 11 -175 14 -30 87 -153 164 -272 153 -238 179
-286 210 -381 27 -82 28 -117 6 -211 -13 -56 -15 -81 -7 -95 8 -14 72 -37 253
-90 l243 -70 1 -125 c0 -108 3 -130 23 -174 29 -63 74 -110 136 -142 119 -60
271 -66 762 -27 179 14 332 24 341 22 9 -2 29 -44 52 -113 98 -286 166 -348
331 -299 36 11 55 12 59 5 4 -6 51 -12 112 -13 101 -3 104 -2 107 20 4 27 -1
27 102 1 138 -35 247 -14 314 60 11 12 22 21 26 21 3 0 49 -50 101 -111 169
-201 392 -394 560 -487 41 -22 117 -55 169 -73 167 -56 332 -41 460 42 70 45
156 131 217 216 24 34 49 60 56 58 73 -26 324 -95 343 -95 35 0 48 30 79 180
15 74 33 140 39 147 6 7 82 39 170 73 123 46 196 82 327 161 94 56 174 110
180 121 16 29 2 67 -29 80 -15 7 -29 13 -30 14 -2 1 19 33 47 70 58 76 63 104
25 131 l-26 19 67 140 c308 640 424 1064 442 1609 11 355 -30 663 -129 963
-25 79 -28 98 -18 116 10 20 2 47 -65 212 -83 205 -97 234 -121 234 -9 0 -78
-18 -154 -40 -76 -22 -147 -40 -157 -40 -13 1 -56 62 -143 203 -145 235 -123
221 -300 188 l-105 -19 -118 124 c-180 188 -350 324 -552 441 -138 80 -622
321 -727 362 -59 23 -185 61 -280 84 l-173 43 -68 100 c-37 54 -73 104 -80
111 -8 8 -137 21 -392 38 -265 18 -437 35 -567 55 -102 17 -192 30 -200 30 -7
0 -56 -15 -108 -34z m318 -91 c63 -10 115 -23 117 -29 2 -6 29 -155 60 -331
31 -176 59 -332 62 -347 5 -26 0 -24 -209 73 l-215 100 -194 -102 c-107 -56
-246 -129 -309 -164 -153 -83 -410 -214 -410 -208 0 19 112 298 152 378 169
336 336 504 617 617 109 44 125 44 329 13z m382 -44 l44 -6 23 -145 c12 -80
50 -313 83 -518 34 -205 60 -379 58 -387 -2 -9 -47 17 -139 81 l-137 96 -32
171 c-97 516 -131 694 -136 711 -6 17 0 18 93 11 54 -4 118 -10 143 -14z m325
-26 c98 -9 182 -19 186 -23 3 -4 73 -110 154 -235 282 -436 524 -733 798 -981
109 -99 167 -131 273 -151 166 -32 327 -13 838 100 114 25 212 45 217 43 6 -2
59 -80 119 -173 91 -142 106 -171 92 -176 -9 -4 -111 -37 -227 -74 -115 -37
-307 -103 -425 -147 -210 -79 -220 -81 -430 -114 -118 -18 -305 -47 -415 -64
-110 -17 -217 -34 -237 -37 -35 -5 -43 -1 -145 84 -60 49 -142 114 -183 143
-41 29 -79 57 -83 61 -6 5 -40 205 -47 276 0 2 -341 243 -457 323 -53 37 -94
72 -97 84 -2 12 -25 145 -51 296 -49 295 -122 718 -131 762 -5 25 -4 26 33 22
21 -2 119 -11 218 -19z m570 -290 c33 -13 89 -36 125 -53 36 -16 97 -39 135
-52 249 -82 451 -177 655 -308 182 -117 470 -343 574 -450 l38 -40 -38 -11
c-22 -6 -99 -22 -172 -36 -113 -21 -163 -25 -325 -25 l-192 0 -143 95 c-79 52
-151 95 -160 96 -14 0 -329 403 -631 805 l-33 45 53 -22 c30 -12 81 -32 114
-44z m-1189 -338 l161 -72 17 -89 c8 -49 17 -90 18 -91 2 -1 75 -51 164 -113
l160 -111 37 -223 c20 -123 53 -323 73 -446 l36 -222 -97 -243 c-54 -133 -148
-361 -210 -507 -62 -146 -145 -348 -185 -450 -39 -101 -74 -189 -77 -193 -8
-13 -142 122 -232 233 -259 320 -435 645 -566 1048 l-36 112 -54 35 c-93 59
-256 143 -351 179 -84 32 -190 57 -305 71 l-47 6 33 55 c45 75 93 191 175 424
38 107 71 202 74 211 4 8 32 28 64 43 31 16 116 61 187 101 72 40 189 102 260
138 72 36 197 101 279 145 l149 81 56 -25 c31 -14 129 -58 217 -97z m664 -578
l88 -62 11 -76 c5 -42 33 -238 61 -436 l51 -361 -303 -614 c-167 -338 -317
-645 -333 -682 -17 -37 -32 -68 -35 -68 -3 0 -25 19 -48 43 l-42 42 81 185
c44 102 130 309 191 460 60 151 157 388 215 525 l106 250 -68 400 c-37 220
-69 412 -72 428 -3 15 -2 27 1 27 4 0 47 -28 96 -61z m277 -192 l131 -90 11
-61 c6 -34 27 -185 46 -336 19 -151 48 -352 63 -445 l28 -171 -44 -54 c-53
-68 -107 -175 -127 -255 -22 -86 -19 -234 5 -331 11 -43 46 -131 77 -194 47
-95 69 -127 126 -182 170 -168 520 -381 1172 -714 324 -166 398 -207 441 -249
67 -65 90 -128 104 -282 6 -65 15 -140 21 -167 5 -27 8 -50 7 -51 -5 -4 -860
-65 -906 -65 -31 0 -180 53 -562 200 l-520 200 -493 129 c-270 72 -789 211
-1152 309 -363 99 -758 203 -877 233 l-217 53 36 40 c20 21 53 77 75 123 38
82 39 83 76 83 43 0 110 29 133 56 72 85 109 256 109 500 0 147 -16 205 -74
271 l-41 46 71 -6 c149 -14 336 -86 521 -200 120 -75 256 -178 521 -395 344
-281 473 -374 662 -474 140 -75 263 -119 455 -164 139 -33 176 -38 283 -38 96
0 121 -3 117 -14 -2 -7 -19 -59 -36 -115 -18 -56 -54 -160 -81 -231 l-48 -129
17 -35 c21 -41 -28 -23 548 -209 216 -69 407 -126 428 -126 46 0 69 19 109 95
17 32 34 58 39 58 4 0 10 -13 14 -29 5 -23 29 -44 122 -106 65 -43 121 -74
129 -71 8 3 73 54 145 112 l129 107 -6 176 c-4 97 -9 179 -13 182 -3 4 -57 21
-119 39 -99 29 -118 31 -162 23 -49 -10 -50 -10 -68 21 -13 22 -51 49 -128 91
-60 32 -185 104 -279 158 -291 170 -518 287 -557 287 -48 0 -79 -37 -123 -147
l-37 -92 -55 -7 c-139 -17 -287 15 -440 96 -144 77 -225 138 -415 313 l-108
99 95 186 c52 103 207 417 344 697 l249 510 -58 387 c-32 212 -62 403 -66 424
-8 44 -23 50 153 -69z m2756 -219 c3 -7 32 -74 65 -149 l59 -136 -156 -53
c-86 -30 -331 -116 -546 -193 -214 -76 -430 -152 -478 -169 -114 -39 -123 -55
-73 -139 39 -66 39 -66 -44 -99 -30 -12 -62 -27 -70 -34 -8 -7 -40 -23 -71
-36 l-56 -22 -186 82 c-147 65 -193 81 -214 75 -16 -3 -71 -20 -123 -36 l-95
-29 -66 -83 c-37 -45 -89 -117 -117 -160 -50 -76 -51 -80 -47 -140 3 -34 7
-96 10 -139 4 -61 14 -100 53 -195 l48 -118 190 -77 c104 -42 198 -77 208 -77
10 -1 94 33 187 74 l168 76 78 -32 c43 -18 89 -40 103 -49 14 -10 42 -23 63
-31 20 -7 37 -16 37 -19 0 -3 -22 -45 -50 -93 -49 -85 -57 -111 -42 -133 7
-11 307 -214 316 -214 3 0 77 -47 164 -104 l159 -104 31 -73 c52 -127 66 -186
65 -287 l0 -94 75 -59 c41 -33 95 -78 119 -100 50 -46 52 -39 -26 -136 l-41
-53 -128 0 c-172 0 -169 -4 -182 186 -14 205 -48 302 -137 385 -30 28 -116 81
-233 144 -102 54 -259 138 -350 188 -91 49 -259 139 -375 199 -224 117 -380
215 -537 335 -122 93 -153 128 -204 228 -74 143 -89 203 -89 345 1 146 15 194
95 313 68 102 111 139 241 212 423 238 760 382 1279 545 107 34 350 112 540
175 190 62 352 113 361 114 9 1 19 -5 22 -11z m-5058 -144 c163 -32 369 -115
519 -209 l72 -45 28 -92 c79 -270 255 -630 416 -853 20 -27 40 -56 44 -63 5
-8 -36 20 -90 61 -115 86 -208 139 -356 201 -174 73 -348 121 -516 141 -61 8
-58 -4 -28 125 18 75 20 120 6 120 -19 0 -38 -46 -60 -142 -20 -89 -25 -98
-46 -98 -21 0 -22 3 -18 38 3 20 10 51 15 67 16 49 59 255 59 281 0 13 -4 24
-10 24 -16 0 -35 -50 -64 -165 -15 -60 -33 -133 -41 -161 -8 -28 -15 -58 -15
-66 0 -10 -11 -17 -30 -20 -16 -3 -30 -4 -30 -4 0 10 32 152 36 157 10 17 74
291 74 319 0 39 -18 38 -35 -2 -14 -34 -58 -194 -80 -288 -25 -108 -50 -190
-57 -190 -8 0 -5 41 12 140 31 179 38 280 20 280 -17 0 -30 -47 -51 -170 -10
-63 -23 -143 -30 -177 -6 -34 -8 -67 -4 -72 3 -7 -3 -11 -15 -11 -18 0 -20 5
-16 33 10 61 28 362 25 400 -2 20 -8 38 -13 40 -15 3 -25 -48 -37 -188 -18
-216 -26 -250 -28 -115 -1 63 -4 249 -7 412 l-6 297 23 6 c75 17 220 12 334
-11z m2764 -223 c114 -86 126 -92 160 -87 31 5 613 99 679 110 43 7 8 -11
-163 -82 -336 -140 -734 -339 -796 -399 l-37 -35 -6 38 c-3 22 -15 115 -26
208 -11 94 -29 225 -40 293 -11 67 -20 130 -20 139 0 11 20 -1 63 -38 34 -30
118 -96 186 -147z m1262 -658 c24 -60 59 -201 65 -259 l7 -62 -99 -6 c-55 -4
-121 -8 -149 -9 l-50 -2 -22 90 c-12 50 -25 102 -28 116 -6 25 -1 29 77 68 46
23 103 53 128 66 56 31 58 31 71 -2z m-4396 -207 c21 -27 45 -182 45 -281 0
-150 -21 -258 -69 -352 -23 -46 -44 -83 -47 -83 -16 0 -65 34 -91 63 -28 32
-63 142 -63 198 0 29 48 26 52 -3 3 -21 8 -23 53 -20 27 1 53 6 57 10 4 4 8
61 9 126 2 132 2 132 -66 138 -37 3 -40 1 -45 -27 -4 -25 -10 -30 -38 -33 -30
-3 -32 -2 -32 30 0 44 26 151 45 188 30 59 54 72 119 68 41 -3 63 -10 71 -22z
m284 -59 l43 -42 -6 -210 c-6 -239 -19 -334 -50 -382 -21 -33 -22 -33 -106
-35 -86 -2 -172 1 -178 6 -1 2 6 19 17 37 11 19 34 84 51 144 26 93 31 127 31
222 0 112 -13 220 -31 268 -6 15 -10 29 -10 33 0 4 44 6 97 4 l98 -3 44 -42z
m4178 -244 c-6 -70 -44 -234 -61 -261 -6 -10 -172 69 -239 112 l-24 16 36 90
c40 102 32 97 161 109 150 14 134 23 127 -66z m-4557 -41 c5 -83 3 -92 -12
-92 -16 0 -18 11 -18 96 0 72 3 95 13 92 8 -3 14 -36 17 -96z m-166 -154 c15
-109 27 -146 63 -188 48 -56 106 -80 195 -80 80 0 79 4 27 -106 -35 -74 -87
-124 -130 -124 -17 0 -38 -4 -48 -9 -14 -8 -30 13 -103 137 -118 199 -142 254
-143 321 0 46 4 56 26 73 25 19 87 38 100 32 4 -2 10 -27 13 -56z m3421 -510
c15 -37 12 -43 -27 -52 -23 -5 -30 -2 -43 23 -14 28 -14 31 7 45 33 24 47 20
63 -16z m-75 -59 c0 -5 -4 -9 -10 -9 -5 0 -10 7 -10 16 0 8 5 12 10 9 6 -3 10
-10 10 -16z m70 -17 c0 -13 -12 -22 -22 -16 -10 6 -1 24 13 24 5 0 9 -4 9 -8z
m-32 -32 c11 -18 3 -44 -53 -193 -36 -94 -80 -210 -97 -256 -35 -92 -64 -119
-95 -88 -20 20 -16 37 72 267 35 91 72 194 82 228 13 46 23 62 38 65 28 4 39
0 53 -23z m197 -145 c30 -29 31 -39 4 -66 -27 -27 -69 -22 -88 12 -13 24 -13
29 2 53 22 33 51 33 82 1z m-146 -391 c26 -33 26 -39 0 -65 -27 -27 -69 -22
-88 12 -13 24 -13 29 2 53 23 34 59 34 86 0z m-273 -56 c7 -12 -21 -38 -42
-38 -14 0 -27 28 -18 41 8 13 51 11 60 -3z m-2531 -30 c72 -21 75 -23 81 -57
19 -104 100 -167 244 -190 36 -6 178 -11 316 -11 185 0 263 -4 300 -14 27 -8
75 -21 107 -30 45 -13 57 -21 57 -36 0 -15 -7 -20 -27 -20 -16 0 -129 -9 -253
-20 -578 -51 -768 -35 -868 74 -43 47 -72 122 -72 185 0 76 13 141 27 141 7 0
47 -10 88 -22z m444 -127 c218 -63 297 -90 280 -94 -67 -18 -375 2 -457 29
-62 21 -111 59 -128 100 -16 37 -18 54 -6 54 4 0 144 -40 311 -89z m787 -234
c7 -6 27 -48 44 -92 43 -106 106 -209 142 -229 18 -11 44 -16 71 -14 41 3 42
2 45 -29 3 -31 1 -33 -49 -47 -111 -33 -156 -12 -214 104 -31 61 -115 297
-115 322 0 14 61 2 76 -15z m279 -68 c82 -23 156 -45 164 -49 16 -9 -26 -33
-111 -65 -46 -17 -47 -18 -50 -64 -3 -45 -4 -46 -40 -49 -31 -3 -40 2 -62 31
-28 36 -90 166 -101 210 -7 25 -5 27 21 27 16 0 96 -19 179 -41z m385 -108
c119 -33 132 -39 113 -49 -28 -15 -123 -15 -197 0 -58 11 -76 29 -76 74 0 20
7 18 160 -25z m1023 -286 c580 -164 533 -148 529 -180 -4 -37 -35 -96 -72
-138 -106 -121 -322 -36 -664 262 -152 133 -182 160 -173 161 5 0 176 -47 380
-105z"/>
<path d="M2071 4862 c-17 -27 -42 -59 -57 -73 -46 -43 -70 -109 -40 -109 14 0
28 16 112 122 l44 57 73 -34 c80 -39 122 -47 122 -26 0 15 -178 111 -206 111
-9 0 -30 -21 -48 -48z"/>
<path d="M2113 4658 c-21 -29 -62 -79 -91 -112 -49 -55 -72 -99 -59 -113 12
-11 66 39 110 100 25 34 60 76 79 94 l33 32 101 -45 c117 -51 169 -65 163 -43
-6 18 -246 139 -275 139 -15 0 -35 -17 -61 -52z"/>
<path d="M2152 4443 c-33 -43 -70 -87 -82 -98 -63 -55 -132 -175 -102 -175 10
0 85 80 191 204 40 47 78 86 83 86 6 0 60 -22 122 -49 111 -48 192 -81 201
-81 3 0 5 7 5 15 0 9 -38 34 -92 61 -91 46 -246 114 -259 114 -4 0 -34 -35
-67 -77z"/>
<path d="M2258 4241 c-176 -69 -296 -277 -253 -439 29 -112 122 -245 198 -284
56 -28 148 -34 215 -14 83 24 188 116 249 216 54 88 49 242 -10 353 -80 151
-254 224 -399 168z"/>
</g>
</svg>
