<?xml version="1.0" standalone="no"?>
<!DOCTYPE svg PUBLIC "-//W3C//DTD SVG 20010904//EN"
 "http://www.w3.org/TR/2001/REC-SVG-20010904/DTD/svg10.dtd">
<svg version="1.0" xmlns="http://www.w3.org/2000/svg"
 width="1280.000000pt" height="1280.000000pt" viewBox="0 0 1280.000000 1280.000000"
 preserveAspectRatio="xMidYMid meet">
<metadata>
Created by potrace 1.11, written by Peter Selinger 2001-2013
</metadata>
<g transform="translate(0.000000,1280.000000) scale(0.100000,-0.100000)"
fill="#000000" stroke="none">
<path d="M6175 12794 c-644 -38 -1028 -99 -1540 -245 -2106 -598 -3786 -2278
-4384 -4384 -169 -595 -245 -1140 -245 -1765 0 -321 12 -520 50 -817 243
-1918 1357 -3636 3014 -4645 875 -533 1830 -839 2870 -919 212 -17 708 -17
920 0 1040 80 1995 386 2870 919 1657 1009 2771 2727 3014 4645 38 297 50 496
50 817 0 321 -12 520 -50 817 -216 1708 -1120 3260 -2506 4300 -968 727 -2106
1159 -3314 1258 -176 15 -632 26 -749 19z m845 -372 c1118 -122 2134 -520
3013 -1181 1279 -962 2119 -2374 2356 -3961 47 -315 56 -456 56 -880 0 -424
-9 -565 -56 -880 -196 -1311 -792 -2489 -1730 -3417 -309 -305 -620 -558 -944
-768 -846 -547 -1722 -855 -2740 -962 -243 -25 -907 -25 -1150 0 -1207 127
-2273 558 -3195 1292 -339 270 -696 627 -965 965 -669 841 -1095 1821 -1254
2890 -47 315 -56 456 -56 880 0 424 9 565 56 880 175 1174 672 2241 1456 3130
129 147 406 422 548 546 961 838 2150 1351 3405 1468 250 24 249 24 645 21
287 -3 411 -8 555 -23z"/>
<path d="M6510 11456 c-403 -45 -834 -141 -1310 -293 -961 -305 -1620 -752
-2088 -1419 -450 -641 -605 -1371 -497 -2340 9 -76 16 -187 17 -246 l1 -108
-49 -82 c-124 -212 -129 -233 -121 -623 6 -316 22 -421 92 -611 165 -446 542
-985 775 -1109 102 -54 234 -185 278 -275 54 -112 84 -307 137 -915 l16 -180
167 -165 c779 -769 1847 -1421 2667 -1629 230 -58 340 -73 597 -78 255 -6 354
2 553 42 764 154 1430 672 1863 1450 184 331 370 890 339 1017 -4 14 -34 60
-67 103 -33 43 -63 89 -66 102 -8 29 0 47 149 358 213 444 257 637 257 1125 0
450 -25 656 -156 1275 l-16 80 84 185 c133 290 168 397 188 569 13 111 3 228
-30 352 -11 41 -33 126 -50 189 -17 64 -37 176 -45 254 -19 179 -29 242 -66
406 -77 346 -184 571 -330 689 -153 125 -187 169 -329 421 -167 297 -258 426
-425 599 -60 63 -150 147 -198 188 -372 310 -965 569 -1502 654 -116 18 -189
22 -430 25 -188 1 -330 -2 -405 -10z m799 -192 c270 -39 517 -118 729 -230
125 -66 194 -111 337 -224 202 -158 221 -165 95 -34 -84 88 -97 114 -55 114
39 0 185 -81 282 -156 113 -87 325 -300 430 -431 114 -142 168 -225 264 -404
110 -205 143 -253 252 -362 105 -104 159 -189 235 -367 54 -126 97 -249 89
-256 -2 -2 -57 16 -122 42 -65 25 -148 52 -186 60 -201 42 -758 44 -1184 4
-582 -54 -1341 -253 -1910 -500 -474 -206 -984 -521 -1630 -1008 -487 -367
-1001 -802 -1105 -936 -49 -65 -57 -102 -40 -202 17 -108 42 -179 119 -340
250 -518 750 -1191 1155 -1553 224 -201 417 -334 672 -463 457 -232 847 -337
1374 -369 777 -47 1470 146 1946 543 191 160 335 343 448 573 87 176 114 248
152 410 28 117 28 128 32 470 3 337 3 356 -22 502 -31 184 -85 428 -176 796
-171 682 -251 901 -462 1254 -44 74 -77 137 -74 140 6 6 86 22 331 65 239 42
424 46 497 10 124 -61 258 -298 287 -506 34 -246 -4 -423 -153 -711 l-83 -160
28 -90 c47 -146 95 -331 123 -465 94 -461 111 -1057 40 -1410 -53 -260 -200
-593 -378 -859 l-97 -143 90 -84 c143 -134 151 -189 65 -455 -118 -366 -305
-718 -544 -1019 -98 -124 -330 -358 -450 -454 -133 -106 -330 -232 -453 -291
-206 -98 -529 -194 -762 -227 -117 -16 -493 -16 -615 1 -245 33 -501 106 -685
196 -335 163 -819 524 -1123 839 -257 266 -355 456 -354 686 1 179 53 276 210
393 49 37 94 67 100 67 6 0 84 -43 174 -95 504 -295 883 -429 1396 -495 196
-26 613 -28 802 -5 451 56 755 142 1105 313 309 152 601 354 778 540 82 87 79
90 -23 21 -425 -285 -1066 -543 -1499 -603 -217 -31 -786 -15 -1084 29 -517
77 -1166 357 -1652 713 -245 180 -380 299 -769 680 -164 160 -302 292 -305
292 -4 0 -13 -42 -20 -92 -14 -112 -43 -175 -91 -203 -30 -17 -57 -20 -202
-24 -93 -1 -168 1 -167 5 0 5 26 29 59 54 83 64 100 94 112 192 23 198 -27
520 -117 759 -95 249 -226 448 -422 641 -158 155 -201 169 -307 99 -92 -61
-101 -37 -31 79 25 41 74 115 110 163 35 49 70 107 76 130 18 67 5 191 -55
492 -85 436 -96 532 -96 865 0 393 39 580 159 775 72 118 157 213 241 272 41
29 92 67 113 85 37 32 38 35 48 128 15 148 31 190 95 260 130 140 324 197 609
179 172 -12 317 -51 555 -151 130 -55 160 -64 160 -44 0 22 -73 80 -180 143
-52 31 -144 85 -205 121 -146 86 -215 139 -232 181 -13 31 -12 37 12 87 50
103 231 236 500 369 326 160 578 225 879 225 230 0 501 -74 819 -222 137 -64
168 -69 143 -21 -21 40 -91 105 -166 153 -36 23 -174 95 -306 160 -133 65
-245 124 -249 131 -13 20 30 46 128 78 179 57 322 77 438 61 181 -24 417 -124
694 -292 151 -92 205 -122 210 -116 2 2 -63 77 -145 167 -81 90 -151 173 -154
184 -3 14 4 29 25 48 54 50 141 59 318 33z m2416 -2357 c130 -28 211 -71 239
-125 7 -15 19 -72 26 -126 6 -55 14 -105 17 -112 12 -31 -38 -37 -366 -39
-370 -2 -520 -17 -936 -92 -896 -160 -1800 -469 -2700 -924 -469 -236 -814
-436 -1565 -907 -440 -276 -534 -332 -553 -332 -33 0 -67 147 -53 226 22 115
658 628 1403 1131 1053 712 1912 1074 2923 1232 226 36 452 59 815 85 28 2
192 2 365 1 235 -2 333 -7 385 -18z m-841 -1240 c36 -39 65 -112 50 -127 -12
-12 -93 -27 -473 -86 -681 -105 -919 -162 -1901 -457 -662 -199 -730 -219
-743 -214 -15 5 66 80 153 141 555 391 1499 703 2310 765 58 5 210 9 339 10
l234 1 31 -33z m47 -247 c64 -35 82 -157 129 -895 31 -477 27 -576 -36 -965
-84 -522 -153 -789 -362 -1410 l-48 -144 -52 -18 c-489 -169 -986 -250 -1347
-219 -343 30 -642 81 -742 127 -114 54 -162 123 -357 514 -207 414 -359 765
-486 1120 -156 436 -195 674 -141 850 45 147 121 249 214 289 247 106 1553
477 2112 601 524 117 1047 187 1116 150z m670 -1515 c14 -155 7 -444 -16 -575
-54 -321 -148 -565 -288 -750 -135 -179 -427 -450 -484 -450 -19 0 -15 19 49
225 46 151 84 298 158 620 65 278 133 432 277 626 99 134 163 237 229 372 57
115 58 114 75 -68z m-6638 -248 c26 -57 77 -142 112 -189 36 -48 65 -91 65
-96 0 -19 -32 -22 -66 -6 -48 23 -101 86 -136 161 -24 49 -31 83 -36 148 -2
47 -1 85 4 85 5 0 31 -46 57 -103z"/>
<path d="M7295 3010 c-255 -66 -442 -257 -510 -516 -22 -87 -20 -291 4 -376
65 -227 227 -396 457 -474 69 -24 94 -27 204 -27 224 1 361 48 490 169 118
112 198 249 235 403 23 94 16 248 -14 334 -83 236 -287 425 -525 489 -92 24
-246 23 -341 -2z m354 -365 c155 -37 281 -134 356 -275 l40 -75 0 -130 c0
-128 -1 -131 -34 -200 -105 -216 -374 -345 -604 -291 -195 46 -357 206 -396
394 -36 172 11 325 136 442 132 124 327 176 502 135z"/>
<path d="M9440 8811 c-17 -33 -12 -106 9 -132 11 -13 21 -22 23 -19 8 10 -4
170 -13 170 -4 0 -13 -9 -19 -19z"/>
<path d="M8440 8671 c-17 -33 -12 -99 10 -121 38 -38 60 -18 34 31 -9 19 -14
47 -12 70 4 43 -14 54 -32 20z"/>
<path d="M7300 8395 c-45 -73 -35 -134 26 -149 40 -10 45 2 18 51 -20 38 -23
55 -18 90 3 24 4 43 1 43 -3 0 -15 -16 -27 -35z"/>
<path d="M6093 7939 c-8 -8 -13 -40 -13 -79 0 -79 18 -113 58 -108 37 4 38 30
3 70 -22 26 -31 46 -33 82 -2 38 -5 45 -15 35z"/>
<path d="M5081 7255 c-1 -27 5 -61 12 -74 14 -28 48 -43 68 -30 12 7 10 16 -9
51 -12 24 -33 57 -47 73 l-24 30 0 -50z"/>
<path d="M8598 7271 c-63 -25 -250 -149 -373 -248 -102 -83 -202 -181 -270
-265 l-37 -48 74 0 c82 0 98 -9 98 -52 0 -21 6 -31 26 -38 33 -13 119 -13 167
1 45 12 68 36 100 103 39 81 55 91 151 91 67 -1 90 -5 133 -27 60 -31 65 -26
52 51 -21 131 -88 135 -399 23 -205 -73 -220 -77 -220 -57 0 41 317 204 514
264 106 33 132 29 207 -30 20 -16 46 -29 56 -29 25 0 93 65 93 89 0 24 -107
123 -173 161 -62 36 -127 39 -199 11z m-400 -605 c-2 -12 -10 -21 -18 -21 -16
0 -25 28 -16 52 9 23 38 -4 34 -31z"/>
<path d="M6533 6689 c-125 -12 -466 -111 -725 -211 -99 -37 -100 -54 -15 -145
50 -54 70 -50 372 62 282 105 589 175 770 175 82 0 115 12 115 42 -1 55 -31
67 -207 78 -165 11 -193 11 -310 -1z"/>
<path d="M7940 6469 c0 -94 53 -256 106 -326 49 -65 58 -14 18 105 -27 81
-109 262 -118 262 -3 0 -6 -18 -6 -41z"/>
<path d="M6850 6471 c-236 -51 -654 -185 -682 -219 -12 -14 -3 -14 79 -8 l92
7 3 -28 c3 -28 4 -28 83 -31 168 -7 225 14 225 83 0 47 18 82 49 94 44 16 188
24 226 11 19 -6 54 -33 79 -61 24 -27 47 -49 50 -49 18 0 0 47 -39 105 -28 40
-45 75 -43 88 4 29 -16 30 -122 8z m-292 -228 c-2 -21 -9 -29 -27 -31 -38 -6
-50 16 -22 39 34 28 53 25 49 -8z"/>
<path d="M8070 5897 c0 -7 17 -37 37 -67 49 -73 87 -154 102 -216 16 -66 6
-89 -88 -213 -39 -52 -71 -98 -71 -103 0 -13 39 10 84 52 54 49 85 59 93 31 5
-20 7 -20 29 10 52 71 55 147 8 288 -31 93 -65 150 -115 195 -39 36 -79 47
-79 23z"/>
<path d="M7324 5363 c3 -51 12 -92 22 -107 16 -26 96 -70 115 -64 6 2 -6 28
-27 58 -21 30 -56 87 -77 125 l-38 70 5 -82z"/>
<path d="M7673 5324 c-18 -9 -33 -20 -33 -24 0 -4 37 -10 83 -13 45 -4 105
-10 132 -13 l50 -7 -20 23 c-11 12 -32 28 -47 36 -36 19 -125 17 -165 -2z"/>
<path d="M8394 4825 c-33 -13 -96 -28 -139 -34 -117 -17 -153 -30 -186 -70
-30 -37 -39 -67 -16 -58 6 2 66 21 132 42 109 33 252 105 270 136 8 11 12 12
-61 -16z"/>
<path d="M7680 4659 c-129 -67 -153 -73 -382 -88 -80 -5 -154 -13 -164 -19
-16 -9 -15 -11 7 -23 52 -28 267 -6 557 56 148 32 212 53 212 70 0 22 -59 65
-88 65 -15 -1 -79 -28 -142 -61z"/>
<path d="M8150 4436 c-254 -127 -275 -133 -435 -116 -91 9 -130 9 -162 1 -51
-14 -61 -26 -31 -42 37 -20 345 -5 442 21 136 36 251 89 321 147 59 49 96 93
78 93 -4 0 -100 -47 -213 -104z"/>
</g>
</svg>
